<svg version="1.0" xmlns="http://www.w3.org/2000/svg" width="616" height="576" viewBox="0 0 616 576">

<g transform="translate(0,576) scale(0.1,-0.1)"
fill="#f5cb4a" stroke="none">
<path d="M3565 4674 c-106 -21 -135 -29 -166 -45 -20 -10 -50 -29 -66 -43 -30
-25 -30 -25 -127 -14 -74 9 -120 9 -192 0 -94 -12 -96 -12 -127 12 -77 57
-169 86 -277 86 -65 0 -90 -15 -90 -54 0 -34 17 -43 100 -49 41 -4 97 -14 123
-23 l49 -17 -34 -15 c-160 -73 -224 -116 -320 -214 -60 -62 -86 -99 -122 -171
-24 -51 -47 -110 -51 -132 -14 -85 -26 -117 -38 -107 -7 5 -37 20 -67 32 -30
12 -64 26 -75 31 -137 58 -371 133 -510 163 -127 27 -228 39 -355 39 -132 1
-191 -8 -302 -50 -197 -72 -289 -266 -233 -488 18 -72 98 -233 150 -301 20
-27 48 -65 63 -84 50 -66 247 -262 352 -349 114 -95 242 -190 360 -265 41 -27
95 -61 118 -77 24 -15 49 -30 55 -32 17 -6 13 -8 -98 -67 -216 -114 -400 -242
-505 -350 -63 -65 -83 -92 -125 -163 -28 -48 -30 -60 -30 -147 0 -86 3 -99 27
-136 54 -83 171 -158 308 -197 163 -46 285 -59 570 -59 151 -1 294 2 316 6
l42 7 45 -83 c96 -174 229 -328 359 -414 38 -24 68 -50 68 -56 0 -6 10 -25 23
-42 13 -17 79 -127 147 -243 100 -169 129 -213 146 -213 14 0 36 19 65 56 24
31 49 61 54 68 37 42 293 363 308 385 9 16 48 51 86 79 122 91 237 229 321
385 41 75 43 78 72 72 16 -4 156 -7 311 -6 235 0 302 3 399 20 267 45 433 132
499 259 19 38 21 54 16 122 -4 67 -11 90 -44 151 -89 166 -309 339 -665 524
-32 17 -58 32 -58 35 0 3 51 36 113 74 346 214 678 505 847 746 57 80 103 170
135 265 23 70 26 92 23 175 -3 77 -9 105 -31 151 -78 162 -248 242 -512 242
-209 0 -454 -48 -695 -137 -125 -45 -246 -94 -292 -117 -20 -10 -39 -16 -41
-11 -3 4 -8 30 -12 57 -25 171 -151 360 -317 473 -52 36 -185 102 -205 102 -7
0 -13 4 -13 9 0 14 112 41 171 41 84 0 119 41 74 86 -24 23 -62 29 -120 18z"/>
</g>
</svg>
