<svg version="1.0" xmlns="http://www.w3.org/2000/svg" width="616" height="576" viewBox="0 0 616 576">

<g transform="translate(0,576) scale(0.1,-0.1)" fill="#324a71" stroke="none">
<path d="M1354 5318 l-131 -31 -43 -143 -43 -143 80 -88 c45 -48 92 -98 104
-110 l24 -21 140 33 c79 18 142 38 147 46 4 8 25 72 47 143 l40 129 -97 108
c-62 68 -104 107 -117 107 -11 0 -79 -13 -151 -30z m213 -114 c37 -41 69 -82
71 -90 2 -8 -10 -59 -27 -113 l-31 -99 -48 -11 c-26 -5 -75 -16 -109 -25 l-63
-14 -75 81 c-85 93 -83 80 -36 220 l27 81 95 22 c52 12 102 23 111 23 9 1 47
-33 85 -75z"/>
<path d="M1658 4800 l-66 -80 35 -97 c19 -54 36 -99 38 -102 9 -8 210 -40 216
-33 56 62 129 158 126 166 -2 6 -19 52 -36 102 l-33 91 -71 11 c-159 26 -134
33 -209 -58z"/>
<path d="M936 4736 c-18 -28 -35 -56 -39 -62 -6 -11 48 -123 66 -135 5 -4 39
-7 76 -8 l67 -1 36 62 36 63 -29 58 c-17 32 -35 60 -42 62 -7 2 -41 5 -75 8
l-64 3 -32 -50z"/>

<path d="M5573 1578 l-72 -73 18 -60 c10 -33 24 -78 30 -101 l11 -40 100 -24
101 -24 72 72 71 71 -17 65 c-39 147 -31 137 -132 163 -49 12 -95 23 -100 23
-6 0 -43 -33 -82 -72z m166 -14 l59 -17 17 -64 18 -65 -46 -46 -45 -45 -62 13
c-68 14 -79 28 -95 113 -7 36 -5 42 36 83 24 24 47 44 51 44 5 0 35 -7 67 -16z"/>
<path d="M4928 1244 c-89 -71 -118 -100 -117 -117 0 -12 10 -82 22 -156 l22
-135 146 -56 146 -57 104 84 c57 47 111 91 122 98 18 12 18 17 -4 161 -12 82
-27 154 -33 161 -10 10 -269 113 -284 113 -4 0 -60 -43 -124 -96z"/>
<path d="M5531 999 l-33 -53 28 -58 28 -58 62 0 62 0 33 51 32 51 -26 54 c-18
37 -33 54 -45 54 -11 0 -39 3 -63 6 l-45 6 -33 -53z m127 -43 c9 -20 8 -29 -6
-46 -14 -18 -22 -20 -43 -11 -32 12 -43 36 -26 61 17 29 61 26 75 -4z"/>
</g>
</svg>
