<svg version="1.0" xmlns="http://www.w3.org/2000/svg" width="616" height="576" viewBox="0 0 616 576">

<g transform="translate(0,576) scale(0.1,-0.1)" fill="#f5cb4a" stroke="none">
<path d="M3565 4674 c-106 -21 -135 -29 -166 -45 -20 -10 -50 -29 -66 -43 -30
-25 -30 -25 -127 -14 -74 9 -120 9 -192 0 -94 -12 -96 -12 -127 12 -77 57
-169 86 -277 86 -65 0 -90 -15 -90 -54 0 -34 17 -43 100 -49 41 -4 97 -14 123
-23 l49 -17 -34 -15 c-160 -73 -224 -116 -320 -214 -60 -62 -86 -99 -122 -171
-24 -51 -47 -110 -51 -132 -14 -85 -26 -117 -38 -107 -7 5 -37 20 -67 32 -30
12 -64 26 -75 31 -137 58 -371 133 -510 163 -127 27 -228 39 -355 39 -132 1
-191 -8 -302 -50 -197 -72 -289 -266 -233 -488 18 -72 98 -233 150 -301 20
-27 48 -65 63 -84 50 -66 247 -262 352 -349 114 -95 242 -190 360 -265 41 -27
95 -61 118 -77 24 -15 49 -30 55 -32 17 -6 13 -8 -98 -67 -216 -114 -400 -242
-505 -350 -63 -65 -83 -92 -125 -163 -28 -48 -30 -60 -30 -147 0 -86 3 -99 27
-136 54 -83 171 -158 308 -197 163 -46 285 -59 570 -59 151 -1 294 2 316 6
l42 7 45 -83 c96 -174 229 -328 359 -414 38 -24 68 -50 68 -56 0 -6 10 -25 23
-42 13 -17 79 -127 147 -243 100 -169 129 -213 146 -213 14 0 36 19 65 56 24
31 49 61 54 68 37 42 293 363 308 385 9 16 48 51 86 79 122 91 237 229 321
385 41 75 43 78 72 72 16 -4 156 -7 311 -6 235 0 302 3 399 20 267 45 433 132
499 259 19 38 21 54 16 122 -4 67 -11 90 -44 151 -89 166 -309 339 -665 524
-32 17 -58 32 -58 35 0 3 51 36 113 74 346 214 678 505 847 746 57 80 103 170
135 265 23 70 26 92 23 175 -3 77 -9 105 -31 151 -78 162 -248 242 -512 242
-209 0 -454 -48 -695 -137 -125 -45 -246 -94 -292 -117 -20 -10 -39 -16 -41
-11 -3 4 -8 30 -12 57 -25 171 -151 360 -317 473 -52 36 -185 102 -205 102 -7
0 -13 4 -13 9 0 14 112 41 171 41 84 0 119 41 74 86 -24 23 -62 29 -120 18z"/>
</g>

<g transform="translate(0,576) scale(0.1,-0.1)" fill="#324a71" stroke="none">

<path d="M1405 3779 c-200 -21 -315 -118 -315 -265 0 -67 25 -134 83 -221 70
-105 167 -201 364 -359 59 -47 234 -163 377 -249 124 -74 131 -77 160 -66 17
7 46 18 64 24 26 8 34 18 43 51 22 83 82 239 121 319 46 93 135 232 167 261
l22 20 -34 35 c-53 58 -94 114 -131 183 -32 57 -41 66 -96 92 -300 137 -594
199 -825 175z"/>
<path d="M4645 3783 c-90 -7 -203 -25 -255 -40 -145 -41 -277 -87 -359 -124
-88 -40 -90 -42 -120 -103 -17 -33 -60 -96 -96 -139 l-66 -78 34 -42 c61 -74
124 -180 171 -285 41 -92 58 -140 99 -272 13 -42 17 -46 74 -68 l61 -23 114
67 c117 70 331 209 383 251 196 156 304 263 376 373 123 187 102 343 -58 427
-81 43 -234 67 -358 56z"/>
<path d="M3025 3209 c-27 -4 -87 -26 -132 -49 -66 -32 -101 -59 -168 -127 -47
-47 -85 -89 -85 -94 0 -5 17 -2 38 7 154 66 277 87 479 82 167 -5 250 -21 372
-73 31 -13 58 -22 60 -20 7 7 -84 106 -138 152 -71 58 -180 111 -257 123 -67
11 -98 11 -169 -1z"/>
<path d="M2915 2620 c-181 -30 -459 -156 -485 -220 -10 -24 -32 -231 -26 -238
2 -1 32 17 67 41 72 49 159 98 204 114 17 7 54 21 83 32 202 76 498 76 717 -1
90 -31 191 -82 275 -137 41 -27 76 -48 77 -47 6 5 -19 231 -27 246 -14 27
-147 103 -245 142 -158 61 -205 70 -405 73 -102 2 -207 0 -235 -5z"/>
<path d="M1985 2437 c-225 -117 -317 -180 -447 -305 -125 -120 -175 -274 -119
-365 66 -107 221 -179 456 -211 131 -18 355 -28 355 -16 0 5 -5 21 -11 37 -36
91 -76 283 -90 438 -11 114 -7 372 7 458 4 20 3 37 -2 37 -5 0 -72 -33 -149
-73z"/>
<path d="M4094 2473 c14 -82 18 -353 7 -473 -13 -152 -44 -308 -85 -437 l-7
-23 127 0 c327 0 589 88 676 228 32 52 28 144 -8 219 -41 83 -182 220 -319
311 -95 63 -370 212 -391 212 -3 0 -4 -17 0 -37z"/>
<path d="M2960 1944 c-132 -15 -306 -61 -420 -111 -112 -49 -106 -37 -75 -137
15 -47 31 -89 36 -92 5 -3 42 11 82 30 198 96 357 125 594 107 180 -14 287
-37 423 -94 133 -55 131 -55 157 25 35 109 35 108 -27 139 -75 38 -222 87
-333 110 -89 19 -352 33 -437 23z"/>
<path d="M2940 1323 c-56 -9 -177 -34 -214 -44 l-38 -10 46 -45 c147 -140 342
-197 513 -150 74 20 170 76 234 136 44 41 51 52 39 60 -20 13 -137 39 -224 50
-69 9 -306 11 -356 3z"/>
</g>
</svg>
