<?xml version="1.0" standalone="no"?>
<!DOCTYPE svg PUBLIC "-//W3C//DTD SVG 20010904//EN"
 "http://www.w3.org/TR/2001/REC-SVG-20010904/DTD/svg10.dtd">
<svg version="1.0" xmlns="http://www.w3.org/2000/svg"
 width="616.000000pt" height="576.000000pt" viewBox="0 0 616.000000 576.000000"
 preserveAspectRatio="xMidYMid meet">

<g transform="translate(0.000000,576.000000) scale(0.100000,-0.100000)"
fill="#000000" stroke="none">
<path d="M0 2880 l0 -2880 3080 0 3080 0 0 2880 0 2880 -3080 0 -3080 0 0
-2880z m3685 1776 c45 -45 10 -86 -74 -86 -59 0 -171 -27 -171 -41 0 -5 6 -9
13 -9 20 0 153 -66 205 -102 166 -113 292 -302 317 -473 4 -27 9 -53 12 -57 2
-5 21 1 41 11 46 23 167 72 292 117 241 89 486 137 695 137 264 0 434 -80 512
-242 22 -46 28 -74 31 -151 3 -83 0 -105 -23 -175 -32 -95 -78 -185 -135 -265
-169 -241 -501 -532 -847 -746 -62 -38 -113 -71 -113 -74 0 -3 26 -18 58 -35
356 -185 576 -358 665 -524 33 -61 40 -84 44 -151 5 -68 3 -84 -16 -122 -66
-127 -232 -214 -499 -259 -97 -17 -164 -20 -399 -20 -155 -1 -295 2 -311 6
-29 6 -31 3 -72 -72 -84 -156 -199 -294 -321 -385 -38 -28 -77 -63 -86 -79
-15 -22 -271 -343 -308 -385 -5 -7 -30 -37 -54 -68 -29 -37 -51 -56 -65 -56
-17 0 -46 44 -146 213 -68 116 -134 226 -147 243 -13 17 -23 36 -23 42 0 6
-30 32 -68 56 -130 86 -263 240 -359 414 l-45 83 -42 -7 c-22 -4 -165 -7 -316
-6 -285 0 -407 13 -570 59 -137 39 -254 114 -308 197 -24 37 -27 50 -27 136 0
87 2 99 30 147 42 71 62 98 125 163 105 108 289 236 505 350 111 59 115 61 98
67 -6 2 -31 17 -55 32 -23 16 -77 50 -118 77 -118 75 -246 170 -360 265 -105
87 -302 283 -352 349 -15 19 -43 57 -63 84 -52 68 -132 229 -150 301 -56 222
36 416 233 488 111 42 170 51 302 50 213 -1 367 -30 650 -124 103 -33 150 -51
215 -78 11 -5 45 -19 75 -31 30 -12 60 -27 67 -32 12 -10 24 22 38 107 4 22
27 81 51 132 36 72 62 109 122 171 96 98 160 141 320 214 l34 15 -49 17 c-26
9 -82 19 -123 23 -83 6 -100 15 -100 49 0 39 25 54 90 54 108 0 200 -29 277
-86 31 -24 33 -24 127 -12 72 9 118 9 192 0 97 -11 97 -11 127 14 16 14 46 33
66 43 31 16 60 24 166 45 58 11 96 5 120 -18z"/>
<path d="M1420 3779 c-159 -14 -257 -66 -304 -160 -46 -93 -31 -192 48 -311
130 -199 375 -400 775 -637 l105 -62 58 22 c68 25 74 31 87 90 14 62 71 211
116 300 44 88 134 226 164 253 l22 20 -34 35 c-52 56 -113 141 -138 194 -20
41 -32 52 -89 79 -197 93 -432 162 -592 173 -45 3 -94 7 -108 9 -14 1 -63 -1
-110 -5z"/>
<path d="M4605 3778 c-173 -14 -406 -81 -600 -175 -65 -31 -72 -37 -97 -91
-15 -32 -57 -92 -92 -134 l-64 -75 64 -89 c95 -133 172 -296 229 -484 l22 -75
61 -23 60 -23 128 77 c291 174 472 308 622 464 245 253 268 473 61 578 -97 49
-213 63 -394 50z"/>
<path d="M3013 3205 c-96 -21 -194 -78 -278 -161 -41 -40 -79 -82 -85 -94 -11
-21 -11 -21 27 -4 259 113 557 120 825 20 80 -30 86 -31 76 -12 -6 11 -44 53
-84 92 -111 108 -264 176 -389 173 -16 0 -58 -7 -92 -14z"/>
<path d="M2945 2624 c-11 -2 -45 -9 -75 -15 -169 -34 -416 -151 -439 -209 -10
-24 -33 -231 -27 -237 1 -2 39 21 84 51 250 168 543 230 825 176 168 -32 296
-85 437 -178 41 -27 76 -49 77 -48 5 4 -19 221 -27 241 -17 46 -225 149 -395
196 -66 19 -110 23 -260 25 -99 2 -189 1 -200 -2z"/>
<path d="M1994 2441 c-281 -141 -495 -313 -564 -454 -129 -263 122 -428 688
-451 104 -4 113 -3 108 12 -93 284 -124 565 -96 856 5 55 8 101 6 103 -2 2
-66 -28 -142 -66z"/>
<path d="M4094 2473 c3 -21 9 -108 13 -193 10 -256 -21 -497 -91 -717 l-7 -23
125 0 c260 0 511 65 620 160 87 77 103 181 45 292 -46 86 -178 216 -306 301
-95 63 -290 170 -371 204 l-35 14 7 -38z"/>
<path d="M2960 1944 c-144 -19 -325 -68 -440 -121 -41 -19 -76 -36 -78 -37 -4
-5 49 -170 59 -180 5 -5 32 3 66 21 86 46 256 99 359 114 71 10 126 10 245 1
178 -12 293 -38 429 -94 133 -56 131 -56 157 24 35 110 36 108 -29 140 -82 40
-227 88 -338 110 -92 18 -352 32 -430 22z"/>
<path d="M2940 1324 c-88 -17 -180 -36 -213 -45 l-38 -10 48 -46 c68 -65 140
-109 226 -138 180 -60 372 -13 518 127 l53 51 -39 14 c-94 32 -185 45 -355 48
-96 2 -186 1 -200 -1z"/>
</g>
</svg>
