<?xml version="1.0" standalone="no"?>
<!DOCTYPE svg PUBLIC "-//W3C//DTD SVG 20010904//EN"
 "http://www.w3.org/TR/2001/REC-SVG-20010904/DTD/svg10.dtd">
<svg version="1.0" xmlns="http://www.w3.org/2000/svg"
 width="616.000000pt" height="576.000000pt" viewBox="0 0 616.000000 576.000000"
 preserveAspectRatio="xMidYMid meet">

<g transform="translate(0.000000,576.000000) scale(0.100000,-0.100000)"
fill="#880" stroke="none">
<path d="M1354 5318 l-131 -31 -43 -143 -43 -143 80 -88 c45 -48 92 -98 104
-110 l24 -21 140 33 c79 18 142 38 147 46 4 8 25 72 47 143 l40 129 -97 108
c-62 68 -104 107 -117 107 -11 0 -79 -13 -151 -30z m213 -114 c37 -41 69 -82
71 -90 2 -8 -10 -59 -27 -113 l-31 -99 -48 -11 c-26 -5 -75 -16 -109 -25 l-63
-14 -75 81 c-85 93 -83 80 -36 220 l27 81 95 22 c52 12 102 23 111 23 9 1 47
-33 85 -75z"/>
<path d="M1658 4800 l-66 -80 35 -97 c19 -54 36 -99 38 -102 9 -8 210 -40 216
-33 56 62 129 158 126 166 -2 6 -19 52 -36 102 l-33 91 -71 11 c-159 26 -134
33 -209 -58z"/>
<path d="M936 4736 c-18 -28 -35 -56 -39 -62 -6 -11 48 -123 66 -135 5 -4 39
-7 76 -8 l67 -1 36 62 36 63 -29 58 c-17 32 -35 60 -42 62 -7 2 -41 5 -75 8
l-64 3 -32 -50z"/>
<path d="M1405 3779 c-200 -21 -315 -118 -315 -265 0 -67 25 -134 83 -221 70
-105 167 -201 364 -359 59 -47 234 -163 377 -249 124 -74 131 -77 160 -66 17
7 46 18 64 24 26 8 34 18 43 51 22 83 82 239 121 319 46 93 135 232 167 261
l22 20 -34 35 c-53 58 -94 114 -131 183 -32 57 -41 66 -96 92 -300 137 -594
199 -825 175z"/>
<path d="M4645 3783 c-90 -7 -203 -25 -255 -40 -145 -41 -277 -87 -359 -124
-88 -40 -90 -42 -120 -103 -17 -33 -60 -96 -96 -139 l-66 -78 34 -42 c61 -74
124 -180 171 -285 41 -92 58 -140 99 -272 13 -42 17 -46 74 -68 l61 -23 114
67 c117 70 331 209 383 251 196 156 304 263 376 373 123 187 102 343 -58 427
-81 43 -234 67 -358 56z"/>
<path d="M3025 3209 c-27 -4 -87 -26 -132 -49 -66 -32 -101 -59 -168 -127 -47
-47 -85 -89 -85 -94 0 -5 17 -2 38 7 154 66 277 87 479 82 167 -5 250 -21 372
-73 31 -13 58 -22 60 -20 7 7 -84 106 -138 152 -71 58 -180 111 -257 123 -67
11 -98 11 -169 -1z"/>
<path d="M2915 2620 c-181 -30 -459 -156 -485 -220 -10 -24 -32 -231 -26 -238
2 -1 32 17 67 41 72 49 159 98 204 114 17 7 54 21 83 32 202 76 498 76 717 -1
90 -31 191 -82 275 -137 41 -27 76 -48 77 -47 6 5 -19 231 -27 246 -14 27
-147 103 -245 142 -158 61 -205 70 -405 73 -102 2 -207 0 -235 -5z"/>
<path d="M1985 2437 c-225 -117 -317 -180 -447 -305 -125 -120 -175 -274 -119
-365 66 -107 221 -179 456 -211 131 -18 355 -28 355 -16 0 5 -5 21 -11 37 -36
91 -76 283 -90 438 -11 114 -7 372 7 458 4 20 3 37 -2 37 -5 0 -72 -33 -149
-73z"/>
<path d="M4094 2473 c14 -82 18 -353 7 -473 -13 -152 -44 -308 -85 -437 l-7
-23 127 0 c327 0 589 88 676 228 32 52 28 144 -8 219 -41 83 -182 220 -319
311 -95 63 -370 212 -391 212 -3 0 -4 -17 0 -37z"/>
<path d="M2960 1944 c-132 -15 -306 -61 -420 -111 -112 -49 -106 -37 -75 -137
15 -47 31 -89 36 -92 5 -3 42 11 82 30 198 96 357 125 594 107 180 -14 287
-37 423 -94 133 -55 131 -55 157 25 35 109 35 108 -27 139 -75 38 -222 87
-333 110 -89 19 -352 33 -437 23z"/>
<path d="M5573 1578 l-72 -73 18 -60 c10 -33 24 -78 30 -101 l11 -40 100 -24
101 -24 72 72 71 71 -17 65 c-39 147 -31 137 -132 163 -49 12 -95 23 -100 23
-6 0 -43 -33 -82 -72z m166 -14 l59 -17 17 -64 18 -65 -46 -46 -45 -45 -62 13
c-68 14 -79 28 -95 113 -7 36 -5 42 36 83 24 24 47 44 51 44 5 0 35 -7 67 -16z"/>
<path d="M4928 1244 c-89 -71 -118 -100 -117 -117 0 -12 10 -82 22 -156 l22
-135 146 -56 146 -57 104 84 c57 47 111 91 122 98 18 12 18 17 -4 161 -12 82
-27 154 -33 161 -10 10 -269 113 -284 113 -4 0 -60 -43 -124 -96z"/>
<path d="M2940 1323 c-56 -9 -177 -34 -214 -44 l-38 -10 46 -45 c147 -140 342
-197 513 -150 74 20 170 76 234 136 44 41 51 52 39 60 -20 13 -137 39 -224 50
-69 9 -306 11 -356 3z"/>
<path d="M5531 999 l-33 -53 28 -58 28 -58 62 0 62 0 33 51 32 51 -26 54 c-18
37 -33 54 -45 54 -11 0 -39 3 -63 6 l-45 6 -33 -53z m127 -43 c9 -20 8 -29 -6
-46 -14 -18 -22 -20 -43 -11 -32 12 -43 36 -26 61 17 29 61 26 75 -4z"/>
</g>
</svg>
