<?xml version="1.0" standalone="no"?>
<!DOCTYPE svg PUBLIC "-//W3C//DTD SVG 20010904//EN"
 "http://www.w3.org/TR/2001/REC-SVG-20010904/DTD/svg10.dtd">
<svg version="1.0" xmlns="http://www.w3.org/2000/svg"
 width="946.000000pt" height="1280.000000pt" viewBox="0 0 946.000000 1280.000000"
 preserveAspectRatio="xMidYMid meet">
<metadata>
Created by potrace 1.15, written by Peter Selinger 2001-2017
</metadata>
<g transform="translate(0.000000,1280.000000) scale(0.100000,-0.100000)"
fill="#000000" stroke="none">
<path d="M3885 12794 c-577 -35 -882 -75 -1262 -166 -87 -21 -94 -21 -105 -5
-12 16 -25 14 -180 -31 -124 -37 -168 -46 -172 -37 -3 10 -50 -1 -178 -40
-703 -214 -1288 -455 -1830 -753 l-158 -87 0 -1842 c0 -1014 2 -1843 5 -1843
5 0 692 606 1928 1698 263 234 376 339 373 351 -26 95 -28 124 -13 136 9 6
153 96 321 199 267 165 305 191 301 210 -3 11 -11 61 -19 110 l-14 88 72 34
c39 18 96 40 126 47 l55 14 85 -79 c276 -257 531 -392 993 -523 51 -15 75 -32
215 -158 420 -380 703 -594 855 -647 88 -31 179 -24 291 24 46 19 51 15 60
-50 3 -25 15 -67 27 -93 l21 -49 -69 -69 c-113 -111 -160 -232 -151 -383 7
-99 36 -177 99 -263 l51 -71 -23 -65 c-13 -36 -42 -115 -65 -176 l-42 -110 33
-15 33 -15 -139 -375 c-76 -206 -139 -381 -139 -388 0 -14 84 -137 100 -147
10 -6 149 32 163 44 4 4 68 173 142 375 75 203 145 380 155 394 l20 25 0 -57
0 -56 38 0 37 0 -3 -439 -2 -439 81 -57 c45 -31 88 -54 95 -51 8 3 43 27 78
53 l65 48 1 336 c0 185 3 478 7 652 l6 316 65 38 c170 100 272 292 259 488 -9
122 -37 191 -132 321 -14 19 -13 25 20 80 48 79 65 142 65 235 0 134 -56 262
-148 340 l-39 33 13 40 c7 23 18 60 24 83 7 29 38 73 109 156 153 178 196 235
273 368 39 68 101 169 138 224 165 248 210 341 210 429 -1 60 -30 138 -84 219
-21 32 -37 60 -34 62 2 2 32 8 67 14 57 9 69 8 120 -13 169 -71 374 -123 524
-132 85 -5 100 -10 202 -60 175 -85 253 -98 418 -69 150 26 258 80 292 144 20
40 19 127 -4 176 -10 22 -16 45 -14 52 11 32 -125 98 -224 109 -43 5 -93 24
-193 74 -74 37 -223 107 -330 155 -107 48 -215 97 -239 107 l-44 20 62 33
c231 124 303 286 183 412 -36 37 -234 51 -332 23 -35 -9 -149 -11 -500 -5
-300 4 -521 3 -648 -5 l-193 -11 -60 55 c-32 30 -89 69 -125 86 -60 29 -189
71 -259 84 -34 6 -392 31 -675 46 -188 11 -1025 21 -1135 14z m1820 -1441 c69
-32 182 -62 238 -63 21 0 27 -5 27 -22 1 -35 44 -132 78 -175 17 -22 48 -48
69 -59 21 -10 40 -20 42 -21 2 -1 -18 -24 -44 -50 -27 -27 -62 -76 -78 -111
-26 -55 -30 -77 -31 -152 -1 -82 -3 -91 -28 -117 -54 -57 -107 -215 -108 -322
0 -40 -2 -43 -22 -36 -13 3 -56 9 -96 12 l-73 6 -59 117 c-66 128 -136 228
-199 282 -34 29 -45 49 -72 129 -29 87 -31 101 -25 194 3 55 14 135 25 178 27
104 92 226 147 277 l44 40 47 -36 c27 -21 80 -52 118 -71z m665 -1559 c23 -25
54 -71 68 -102 24 -50 27 -69 27 -162 0 -95 -3 -110 -28 -160 -49 -98 -48 -98
-105 -61 -91 58 -154 75 -282 75 -92 0 -134 -6 -210 -26 -71 -20 -98 -23 -106
-15 -19 20 -42 89 -49 150 l-7 57 115 0 c75 0 129 5 156 15 66 23 128 71 147
113 13 30 22 39 43 40 81 3 110 20 152 89 12 18 24 33 29 33 4 0 26 -21 50
-46z m-280 -559 c33 -17 60 -52 60 -77 0 -15 -9 -18 -66 -18 -60 0 -154 16
-154 27 0 16 26 47 53 63 38 24 68 25 107 5z m-36 -154 l91 -6 -25 -22 c-35
-34 -108 -32 -149 3 -30 25 -44 53 -19 38 6 -4 52 -10 102 -13z"/>
<path d="M2312 6310 c-145 -38 -267 -131 -317 -241 -97 -217 81 -465 477 -664
83 -42 101 -54 85 -59 -44 -12 -68 -5 -129 35 -169 109 -397 177 -655 195
l-93 7 -43 59 c-92 124 -221 193 -402 213 -46 6 -67 14 -90 35 -213 198 -618
264 -802 131 -46 -34 -79 -94 -89 -166 -3 -27 -11 -56 -16 -62 -8 -10 7 -30
53 -75 66 -65 162 -122 257 -153 40 -13 77 -38 151 -104 238 -214 754 -597
951 -708 30 -17 143 -77 250 -133 260 -136 330 -184 493 -336 361 -335 458
-415 581 -474 108 -51 349 -140 816 -300 590 -202 856 -309 1125 -449 287
-150 383 -220 459 -336 83 -125 231 -481 203 -490 -6 -2 -29 -6 -49 -10 -23
-3 -35 -10 -33 -18 2 -7 54 -176 115 -377 61 -201 113 -372 115 -381 4 -11 -8
-18 -47 -29 -29 -7 -68 -20 -86 -28 -31 -15 -32 -19 -27 -57 2 -22 39 -330 81
-685 42 -355 77 -646 78 -648 2 -1 842 -1 1868 0 l1865 3 -516 926 c-284 509
-522 933 -530 943 -18 21 -38 20 -86 -4 -21 -11 -42 -17 -46 -12 -3 4 -68 194
-144 422 -76 228 -141 419 -145 423 -4 5 -81 -6 -169 -23 -89 -18 -163 -31
-165 -29 -1 2 -72 137 -156 299 -248 478 -378 705 -538 940 -147 218 -328 447
-493 625 -47 50 -97 121 -137 190 -103 180 -187 290 -337 440 -169 170 -280
250 -480 349 -315 156 -610 222 -1035 233 l-225 6 -125 48 c-69 26 -233 89
-365 139 -149 57 -271 111 -322 141 -188 114 -413 187 -749 243 -179 31 -282
32 -382 6z"/>
</g>
</svg>
