<?xml version="1.0" standalone="no"?>
<!DOCTYPE svg PUBLIC "-//W3C//DTD SVG 20010904//EN"
 "http://www.w3.org/TR/2001/REC-SVG-20010904/DTD/svg10.dtd">
<svg version="1.0"
    xmlns="http://www.w3.org/2000/svg" width="1280.000000pt" height="1106.000000pt" viewBox="0 0 1280.000000 1106.000000" preserveAspectRatio="xMidYMid meet">
    <metadata>
Created by potrace 1.15, written by Peter Selinger 2001-2017
    </metadata>
    <g transform="translate(0.000000,1106.000000) scale(0.100000,-0.100000)" fill="#ffc107" stroke="none">
        <path d="M6155 11049 c-1065 -110 -1892 -814 -2016 -1716 -7 -51 -16 -93 -19
-93 -3 0 -66 28 -140 61 -331 150 -878 353 -1165 433 -383 105 -680 165 -1000
202 -181 21 -567 23 -700 5 -389 -54 -657 -170 -843 -365 -87 -92 -123 -145
-177 -259 -68 -145 -89 -244 -90 -422 0 -161 9 -228 56 -392 166 -589 751
-1313 1621 -2006 313 -250 736 -542 1094 -757 l192 -115 -237 -121 c-1290
-661 -1944 -1360 -1801 -1927 109 -434 645 -721 1545 -828 347 -41 976 -52
1375 -24 113 7 248 17 300 20 l95 7 67 -133 c276 -550 661 -978 1119 -1246 29
-17 37 -28 43 -62 3 -23 13 -44 21 -47 7 -3 182 -289 386 -635 l373 -629 46 0
46 0 485 613 c266 336 508 635 537 663 43 43 52 57 52 87 0 33 5 38 73 81 401
250 785 694 1020 1179 l62 128 77 -6 c413 -29 544 -35 863 -35 482 0 750 21
1118 87 712 127 1141 397 1237 780 42 168 16 342 -81 537 -226 449 -818 928
-1720 1390 l-237 121 192 115 c894 537 1693 1203 2195 1830 249 310 443 658
520 933 47 164 56 231 56 392 -1 178 -22 277 -90 422 -54 114 -90 167 -177
259 -186 195 -454 311 -843 365 -133 18 -519 16 -700 -5 -320 -37 -617 -97
-1000 -202 -287 -80 -834 -283 -1165 -433 -74 -33 -137 -61 -141 -61 -3 0 -9
28 -13 63 -27 259 -135 545 -295 783 -343 511 -910 849 -1595 950 -123 18
-498 26 -621 13z m-1104 -1211 c223 -66 334 -560 204 -905 -30 -79 -87 -166
-130 -199 l-33 -25 -84 54 c-45 30 -125 78 -176 106 -102 58 -109 67 -138 176
-26 99 -26 341 0 440 49 186 147 323 252 355 41 12 61 12 105 -2z m2840 -14
c84 -43 176 -187 214 -334 22 -87 31 -279 16 -366 -7 -38 -21 -98 -32 -134
l-20 -65 -91 -50 c-50 -28 -131 -76 -181 -108 l-89 -58 -33 25 c-43 33 -100
120 -130 199 -82 218 -70 528 27 727 37 76 118 161 168 177 43 15 110 9 151
-13z m-5368 -840 c487 -53 1028 -213 1569 -464 l157 -72 54 -112 c96 -194 224
-372 382 -530 l87 -87 -44 -52 c-335 -397 -618 -978 -778 -1594 -10 -38 -14
-43 -61 -58 -28 -10 -104 -39 -170 -65 l-119 -49 -238 141 c-523 309 -844 521
-1167 772 -584 451 -952 879 -1070 1246 -33 102 -45 269 -25 359 41 193 212
378 436 471 96 40 239 77 364 94 135 19 452 19 623 0z m8363 1 c305 -40 519
-134 665 -293 73 -79 130 -183 149 -273 20 -90 8 -257 -25 -359 -118 -367
-486 -795 -1070 -1246 -323 -250 -644 -463 -1167 -772 l-237 -140 -148 59
c-81 32 -154 59 -161 59 -16 0 -23 18 -60 165 -139 542 -425 1117 -734 1476
l-56 66 60 59 c91 90 205 228 274 334 57 88 140 240 162 301 8 20 41 40 168
98 535 248 1080 410 1559 465 165 19 484 20 621 1z m-4266 -1489 c305 -54 616
-241 874 -526 73 -81 198 -242 192 -248 -2 -2 -33 11 -67 29 -206 104 -497
195 -759 238 -556 92 -1181 4 -1674 -235 -38 -19 -71 -33 -72 -31 -8 8 143
195 236 291 297 307 571 452 950 500 58 7 230 -3 320 -18z m231 -1535 c367
-56 671 -153 975 -310 118 -61 300 -171 367 -222 17 -13 52 -285 67 -522 7
-98 10 -180 9 -181 -2 -2 -58 35 -124 81 -544 385 -1118 573 -1746 573 -381 0
-727 -65 -1065 -200 -249 -99 -527 -257 -737 -418 -32 -24 -61 -42 -64 -39 -7
8 16 342 33 472 8 61 18 132 21 158 7 54 18 66 168 162 357 230 800 390 1245
449 176 24 187 24 460 21 194 -3 287 -9 391 -24z m-3001 -411 c-110 -780 -33
-1624 214 -2347 l35 -103 -237 0 c-716 1 -1327 132 -1664 357 -81 54 -179 149
-225 219 -105 158 -112 368 -18 571 164 355 592 733 1251 1104 93 52 138 72
160 70 30 -1 39 3 162 92 31 22 333 168 338 163 1 0 -7 -57 -16 -126z m5241
56 c78 -36 159 -77 180 -93 123 -87 132 -93 165 -93 24 0 73 -22 161 -71 652
-366 1084 -747 1248 -1102 47 -102 65 -181 65 -285 0 -322 -276 -568 -807
-722 -309 -89 -784 -145 -1179 -138 l-202 3 29 90 c79 241 150 544 189 808 43
289 53 449 54 822 1 353 -6 480 -40 728 -16 123 -16 117 -9 117 3 0 68 -29
146 -64z m-2282 -1431 c451 -53 839 -163 1229 -350 109 -53 133 -68 128 -82
-2 -10 -19 -72 -36 -138 -34 -128 -105 -344 -118 -357 -4 -4 -42 10 -84 32
-185 97 -514 220 -723 270 -266 63 -462 87 -829 100 -309 10 -396 6 -586 -31
-313 -61 -670 -190 -927 -337 -65 -36 -74 -39 -82 -24 -24 47 -151 471 -151
506 0 8 115 65 250 124 393 170 876 283 1315 306 128 7 486 -5 614 -19z m21
-1619 c270 -36 680 -129 680 -155 0 -5 -54 -61 -120 -124 -227 -219 -470 -353
-750 -413 -118 -25 -362 -25 -480 0 -224 48 -446 155 -625 299 -58 47 -255
239 -255 248 0 7 185 57 329 89 119 26 336 59 466 70 148 13 620 4 755 -14z"/>
    </g>
</svg>
